<?xml version="1.0" encoding="utf-8"?>
<!-- Generator: Adobe Illustrator 26.2.1, SVG Export Plug-In . SVG Version: 6.00 Build 0)  -->
<svg version="1.1" baseProfile="tiny" id="Layer_1" xmlns="http://www.w3.org/2000/svg" xmlns:xlink="http://www.w3.org/1999/xlink"
	 x="0px" y="0px" viewBox="0 0 123.2 138.9" overflow="visible" xml:space="preserve">
<g id="Icon_x2F_Paws" transform="translate(375.418855, 27.653245) rotate(129.000000) translate(-375.418855, -27.653245) translate(363.395415, 16.347807)">
	<path id="Paws" fill="#FFB558" d="M223,282.2c2.4,1,3.4,2.6,3.9,3.6l0.1,0.3c0,0,0,0.1,0,0.1l0.1,0.2l0,0.2l0.1,0.4l0,0.2l0,0.3
		l0,0.3c0,1-0.1,2.5-1.2,3.7c-0.4,0.4-0.8,0.6-1.3,0.7c-0.3,0-0.7,0-1-0.1c-0.6-0.2-1.2-0.7-1.8-1.5c-0.2-0.3-0.7-1-1.2-1.2
		c-0.3-0.1-0.5-0.2-0.7-0.3c-0.3-0.1-0.6-0.1-0.9-0.1c-0.3,0-0.5,0.1-0.6,0.1l-0.1,0c0,0-0.1,0-0.1,0c-0.6,0.1-1.2,0.1-1.7-0.1
		c-1.3-0.3-2.2-1.6-1.9-3c0.3-1.4,1.2-2.4,1.8-2.9l0.2-0.2l0.4-0.3l0.1-0.1l0.2-0.1l0.3-0.1C218.6,282,220.6,281.3,223,282.2z
		 M231.7,283c0.9,0.6,0.9,2.2,0,3.6s-2.4,2-3.3,1.4c-0.9-0.6-0.9-2.2,0-3.6S230.8,282.4,231.7,283z M217.8,280
		c-0.3,1.6-1.5,2.8-2.5,2.6s-1.7-1.7-1.4-3.3c0.3-1.6,1.5-2.8,2.5-2.6C217.5,276.9,218.2,278.4,217.8,280z M229,275.9
		c1.6,0.6,2.3,2.5,1.6,4.3c-0.7,1.8-2.5,2.8-4,2.3c-1.6-0.6-2.3-2.5-1.6-4.3C225.6,276.3,227.4,275.3,229,275.9z M222.8,273.6
		c1.3,0.5,1.8,2.3,1.2,4.1c-0.7,1.8-2.2,2.9-3.5,2.4c-1.3-0.5-1.8-2.3-1.2-4.1C220,274.3,221.6,273.2,222.8,273.6z"/>
</g>
<g id="Icon_x2F_Paws_00000152233770593134632230000005717694333890799278_" transform="translate(353.223301, 15.717038) rotate(151.000000) translate(-353.223301, -15.717038) translate(341.199861, 4.411600)">
	<path id="Paws_00000084521642425483406960000005464016575253521539_" fill="#FFB558" d="M309.3,183.4c2.4,1,3.4,2.6,3.9,3.6
		l0.1,0.3c0,0,0,0.1,0,0.1l0.1,0.2l0,0.2l0.1,0.4l0,0.2l0,0.3l0,0.3c0,1-0.1,2.5-1.2,3.7c-0.4,0.4-0.8,0.6-1.3,0.7
		c-0.3,0-0.7,0-1-0.1c-0.6-0.2-1.2-0.7-1.8-1.5c-0.2-0.3-0.7-1-1.2-1.2c-0.3-0.1-0.5-0.2-0.7-0.3c-0.3-0.1-0.6-0.1-0.9-0.1
		c-0.3,0-0.5,0.1-0.6,0.1l-0.1,0c0,0-0.1,0-0.1,0c-0.6,0.1-1.2,0.1-1.7-0.1c-1.3-0.3-2.2-1.6-1.9-3c0.3-1.4,1.2-2.4,1.8-2.9l0.2-0.2
		l0.4-0.3l0.1-0.1l0.2-0.1l0.3-0.1C304.9,183.2,306.9,182.6,309.3,183.4z M318,184.3c0.9,0.6,0.9,2.2,0,3.6c-0.9,1.4-2.4,2-3.3,1.4
		c-0.9-0.6-0.9-2.2,0-3.6S317.1,183.6,318,184.3z M304.2,181.2c-0.3,1.6-1.5,2.8-2.5,2.6c-1.1-0.2-1.7-1.7-1.4-3.3
		c0.3-1.6,1.5-2.8,2.5-2.6C303.9,178.1,304.5,179.6,304.2,181.2z M315.3,177.1c1.6,0.6,2.3,2.5,1.6,4.3s-2.5,2.8-4,2.3
		c-1.6-0.6-2.3-2.5-1.6-4.3S313.7,176.5,315.3,177.1z M309.2,174.9c1.3,0.5,1.8,2.3,1.2,4.1c-0.7,1.8-2.2,2.9-3.5,2.4
		c-1.3-0.5-1.8-2.3-1.2-4.1C306.3,175.5,307.9,174.4,309.2,174.9z"/>
</g>
<g id="Icon_x2F_Paws_00000049917859573521618600000013858999018641525680_" transform="translate(421.492669, 84.048890) rotate(92.000000) translate(-421.492669, -84.048890) translate(409.469229, 72.743453)">
	<path id="Paws_00000023260209778869348740000007020697534215366078_" fill="#FFB558" d="M17.2,354.5c2.4,1,3.4,2.6,3.9,3.6l0.1,0.3
		c0,0,0,0.1,0,0.1l0.1,0.2l0,0.2l0.1,0.4l0,0.2l0,0.3l0,0.3c0,1-0.1,2.5-1.2,3.7c-0.4,0.4-0.8,0.6-1.3,0.7c-0.3,0-0.7,0-1-0.1
		c-0.6-0.2-1.2-0.7-1.8-1.5c-0.2-0.3-0.7-1-1.2-1.2c-0.3-0.1-0.5-0.2-0.7-0.3c-0.3-0.1-0.6-0.1-0.9-0.1c-0.3,0-0.5,0.1-0.6,0.1
		l-0.1,0c0,0-0.1,0-0.1,0c-0.6,0.1-1.2,0.1-1.7-0.1c-1.3-0.3-2.2-1.6-1.9-3c0.3-1.4,1.2-2.4,1.8-2.9l0.2-0.2l0.4-0.3l0.1-0.1
		l0.2-0.1l0.3-0.1C12.8,354.3,14.7,353.6,17.2,354.5z M25.9,355.3c0.9,0.6,0.9,2.2,0,3.6c-0.9,1.4-2.4,2-3.3,1.4
		c-0.9-0.6-0.9-2.2,0-3.6C23.5,355.3,25,354.7,25.9,355.3z M12,352.3c-0.3,1.6-1.5,2.8-2.5,2.6c-1.1-0.2-1.7-1.7-1.4-3.3
		c0.3-1.6,1.5-2.8,2.5-2.6S12.4,350.6,12,352.3z M23.1,348.1c1.6,0.6,2.3,2.5,1.6,4.3c-0.7,1.8-2.5,2.8-4,2.3
		c-1.6-0.6-2.3-2.5-1.6-4.3C19.8,348.6,21.6,347.6,23.1,348.1z M17,345.9c1.3,0.5,1.8,2.3,1.2,4.1c-0.7,1.8-2.2,2.9-3.5,2.4
		c-1.3-0.5-1.8-2.3-1.2-4.1C14.2,346.5,15.7,345.4,17,345.9z"/>
</g>
<g id="Icon_x2F_Paws_00000085216212048664675290000015176366321413564090_" transform="translate(393.167166, 79.342668) rotate(140.000000) translate(-393.167166, -79.342668) translate(381.143726, 68.037230)">
	<path id="Paws_00000075163092379423300840000014702033073481316741_" fill="#FFB558" d="M270.9,237c2.4,1,3.4,2.6,3.9,3.6l0.1,0.3
		c0,0,0,0.1,0,0.1l0.1,0.2l0,0.2l0.1,0.4l0,0.2l0,0.3l0,0.3c0,1-0.1,2.5-1.2,3.7c-0.4,0.4-0.8,0.6-1.3,0.7c-0.3,0-0.7,0-1-0.1
		c-0.6-0.2-1.2-0.7-1.8-1.5c-0.2-0.3-0.7-1-1.2-1.2c-0.3-0.1-0.5-0.2-0.7-0.3c-0.3-0.1-0.6-0.1-0.9-0.1c-0.3,0-0.5,0.1-0.6,0.1
		l-0.1,0c0,0-0.1,0-0.1,0c-0.6,0.1-1.2,0.1-1.7-0.1c-1.3-0.3-2.2-1.6-1.9-3c0.3-1.4,1.2-2.4,1.8-2.9l0.2-0.2l0.4-0.3l0.1-0.1
		l0.2-0.1l0.3-0.1C266.5,236.8,268.5,236.1,270.9,237z M279.6,237.8c0.9,0.6,0.9,2.2,0,3.6c-0.9,1.4-2.4,2-3.3,1.4
		c-0.9-0.6-0.9-2.2,0-3.6C277.2,237.8,278.7,237.2,279.6,237.8z M265.8,234.8c-0.3,1.6-1.5,2.8-2.5,2.6c-1.1-0.2-1.7-1.7-1.4-3.3
		c0.3-1.6,1.5-2.8,2.5-2.6C265.5,231.7,266.1,233.2,265.8,234.8z M276.9,230.6c1.6,0.6,2.3,2.5,1.6,4.3s-2.5,2.8-4,2.3
		c-1.6-0.6-2.3-2.5-1.6-4.3S275.3,230.1,276.9,230.6z M270.8,228.4c1.3,0.5,1.8,2.3,1.2,4.1c-0.7,1.8-2.2,2.9-3.5,2.4
		c-1.3-0.5-1.8-2.3-1.2-4.1C267.9,229,269.5,227.9,270.8,228.4z"/>
</g>
<g id="Icon_x2F_Paws_00000149373508881026523470000001371692266235563449_" transform="translate(457.649652, 136.400779) rotate(92.000000) translate(-457.649652, -136.400779) translate(445.626213, 125.095341)">
	<path id="Paws_00000089570254191609630870000006984318534436698524_" fill="#FFB558" d="M17.2,354.5c2.4,1,3.4,2.6,3.9,3.6l0.1,0.3
		c0,0,0,0.1,0,0.1l0.1,0.2l0,0.2l0.1,0.4l0,0.2l0,0.3l0,0.3c0,1-0.1,2.5-1.2,3.7c-0.4,0.4-0.8,0.6-1.3,0.7c-0.3,0-0.7,0-1-0.1
		c-0.6-0.2-1.2-0.7-1.8-1.5c-0.2-0.3-0.7-1-1.2-1.2c-0.3-0.1-0.5-0.2-0.7-0.3c-0.3-0.1-0.6-0.1-0.9-0.1c-0.3,0-0.5,0.1-0.6,0.1
		l-0.1,0c0,0-0.1,0-0.1,0c-0.6,0.1-1.2,0.1-1.7-0.1c-1.3-0.3-2.2-1.6-1.9-3c0.3-1.4,1.2-2.4,1.8-2.9l0.2-0.2l0.4-0.3l0.1-0.1
		l0.2-0.1l0.3-0.1C12.8,354.3,14.7,353.6,17.2,354.5z M25.9,355.3c0.9,0.6,0.9,2.2,0,3.6s-2.4,2-3.3,1.4c-0.9-0.6-0.9-2.2,0-3.6
		C23.5,355.3,25,354.7,25.9,355.3z M12,352.3c-0.3,1.6-1.5,2.8-2.5,2.6c-1.1-0.2-1.7-1.7-1.4-3.3c0.3-1.6,1.5-2.8,2.5-2.6
		S12.4,350.6,12,352.3z M23.1,348.1c1.6,0.6,2.3,2.5,1.6,4.3c-0.7,1.8-2.5,2.8-4,2.3c-1.6-0.6-2.3-2.5-1.6-4.3
		C19.8,348.6,21.6,347.6,23.1,348.1z M17,345.9c1.3,0.5,1.8,2.3,1.2,4.1c-0.7,1.8-2.2,2.9-3.5,2.4c-1.3-0.5-1.8-2.3-1.2-4.1
		C14.2,346.5,15.7,345.4,17,345.9z"/>
</g>
<g id="Icon_x2F_Paws_00000083799823945029628090000013408037529585305743_" transform="translate(434.223301, 130.717038) rotate(151.000000) translate(-434.223301, -130.717038) translate(422.199861, 119.411600)">
	<path id="Paws_00000036237276754668466990000001577150196295764412_" fill="#FFB558" d="M309.3,183.4c2.4,1,3.4,2.6,3.9,3.6
		l0.1,0.3c0,0,0,0.1,0,0.1l0.1,0.2l0,0.2l0.1,0.4l0,0.2l0,0.3l0,0.3c0,1-0.1,2.5-1.2,3.7c-0.4,0.4-0.8,0.6-1.3,0.7
		c-0.3,0-0.7,0-1-0.1c-0.6-0.2-1.2-0.7-1.8-1.5c-0.2-0.3-0.7-1-1.2-1.2c-0.3-0.1-0.5-0.2-0.7-0.3c-0.3-0.1-0.6-0.1-0.9-0.1
		c-0.3,0-0.5,0.1-0.6,0.1l-0.1,0c0,0-0.1,0-0.1,0c-0.6,0.1-1.2,0.1-1.7-0.1c-1.3-0.3-2.2-1.6-1.9-3c0.3-1.4,1.2-2.4,1.8-2.9l0.2-0.2
		l0.4-0.3l0.1-0.1l0.2-0.1l0.3-0.1C304.9,183.2,306.9,182.6,309.3,183.4z M318,184.3c0.9,0.6,0.9,2.2,0,3.6c-0.9,1.4-2.4,2-3.3,1.4
		c-0.9-0.6-0.9-2.2,0-3.6S317.1,183.6,318,184.3z M304.2,181.2c-0.3,1.6-1.5,2.8-2.5,2.6c-1.1-0.2-1.7-1.7-1.4-3.3
		c0.3-1.6,1.5-2.8,2.5-2.6C303.9,178.1,304.5,179.6,304.2,181.2z M315.3,177.1c1.6,0.6,2.3,2.5,1.6,4.3s-2.5,2.8-4,2.3
		c-1.6-0.6-2.3-2.5-1.6-4.3S313.7,176.5,315.3,177.1z M309.2,174.9c1.3,0.5,1.8,2.3,1.2,4.1c-0.7,1.8-2.2,2.9-3.5,2.4
		c-1.3-0.5-1.8-2.3-1.2-4.1C306.3,175.5,307.9,174.4,309.2,174.9z"/>
</g>
</svg>
